# xmcd
#
# Track frame offsets:
#	150
#	9816
#	21630
#	35310
#	53765
#	68882
#	79688
#	97853
#	108532
#	118984
#	128503
#	138942
#	148662
#	157512
#
# Disc length: 2249 seconds
#
# Revision: 1
# Processed by: cddbd v1.5.2PL0 Copyright (c) Steve Scherf et al.
# Submitted via: audiograbber 1.83.01
#
DISCID=ab08c70e
DTITLE=Sean Mencher - Sean Mencher
DYEAR=2006
DGENRE=Rockabilly
TTITLE0=Rock, Roll Jump And Jive
TTITLE1=Settin' The Woods On Fire
TTITLE2=Right Or Wrong
TTITLE3=Crying The Blues Over You
TTITLE4=Bayou Beauty
TTITLE5=All The Time
TTITLE6=Mustat Silmät (Dark Eyes, Ochi Chrnye)
TTITLE7=Don't Big Shot Me
TTITLE8=Hot Rod Mama
TTITLE9=Vamos A La Playa
TTITLE10=Down The Line
TTITLE11=Little Baby Doll
TTITLE12=Honky Tonk Gal
TTITLE13=Hit Git And Split
EXTD=
EXTT0=
EXTT1=
EXTT2=
EXTT3=
EXTT4=
EXTT5=
EXTT6=
EXTT7=
EXTT8=
EXTT9=
EXTT10=
EXTT11=
EXTT12=
EXTT13=
PLAYORDER=
